<?xml version="1.0" standalone="no"?>
<!DOCTYPE svg PUBLIC "-//W3C//DTD SVG 20010904//EN"
 "http://www.w3.org/TR/2001/REC-SVG-20010904/DTD/svg10.dtd">
<svg version="1.0" xmlns="http://www.w3.org/2000/svg"
 width="500.000000pt" height="500.000000pt" viewBox="0 0 500.000000 500.000000"
 preserveAspectRatio="xMidYMid meet">
<metadata>
Created by potrace 1.11, written by Peter Selinger 2001-2013
</metadata>
<g transform="translate(0.000000,500.000000) scale(0.100000,-0.100000)"
fill="#000000" stroke="none">
<path d="M0 2500 l0 -2500 2500 0 2500 0 0 2500 0 2500 -2500 0 -2500 0 0
-2500z m2965 2026 c142 -28 258 -85 358 -175 47 -43 37 -51 -63 -51 -122 0
-173 -12 -295 -71 -96 -47 -189 -141 -240 -244 -57 -116 -74 -203 -84 -425 -9
-219 0 -376 38 -620 16 -107 49 -265 82 -395 6 -22 14 -58 19 -80 12 -57 39
-165 50 -201 6 -17 10 -40 10 -52 0 -11 4 -23 9 -26 5 -3 11 -20 14 -38 6 -36
19 -90 37 -153 6 -22 15 -58 19 -80 5 -22 11 -47 15 -56 11 -25 -21 -41 -139
-68 -27 -7 -66 -16 -85 -21 -46 -12 -119 -26 -205 -40 -38 -6 -86 -15 -105
-20 -19 -4 -80 -13 -135 -19 -55 -7 -134 -16 -175 -21 -100 -13 -419 -13 -478
1 -109 24 -139 34 -182 57 -82 46 -98 62 -105 106 -4 23 -15 66 -25 96 -10 30
-28 93 -40 140 -12 47 -31 114 -41 150 -11 36 -23 81 -28 100 -5 19 -17 62
-26 95 -10 33 -19 74 -22 91 -5 30 -4 31 49 42 29 6 78 14 108 17 30 4 75 12
100 20 25 7 89 21 143 31 85 14 115 15 225 5 299 -27 433 -33 515 -23 103 12
190 49 245 105 43 44 106 166 100 195 -5 26 -35 26 -87 2 -25 -13 -55 -27 -67
-32 -30 -14 -209 -4 -284 16 -114 30 -144 38 -170 46 -128 41 -242 38 -330 -8
l-62 -31 -49 24 c-50 26 -133 34 -167 16 -9 -5 -38 -17 -65 -26 -26 -9 -53
-23 -61 -30 -40 -41 -190 -124 -202 -112 -11 10 -41 153 -53 247 -7 52 -17
125 -22 162 -28 202 20 477 117 673 94 191 284 371 511 484 59 29 116 58 125
62 10 5 27 9 37 9 11 0 44 8 73 19 147 52 327 94 483 111 55 6 116 12 135 14
73 8 408 -4 475 -18z m-1416 -1642 c14 -3 35 -12 45 -20 19 -14 19 -15 -7 -42
-31 -32 -35 -67 -10 -94 20 -22 66 -24 87 -2 20 20 21 68 1 84 -34 28 -14 49
73 76 87 26 207 16 342 -29 172 -56 183 -58 301 -55 63 2 122 7 132 12 12 6
17 4 17 -6 0 -26 -74 -87 -144 -118 -57 -26 -85 -32 -170 -37 -55 -3 -153 0
-216 7 -63 6 -184 14 -268 17 -160 6 -194 2 -367 -43 -49 -13 -124 -30 -165
-38 -84 -18 -236 -21 -245 -6 -3 6 -17 10 -30 10 -31 0 -90 61 -106 107 -14
43 -9 49 20 23 13 -10 46 -26 75 -34 88 -25 154 -5 346 109 127 76 188 99 239
89 13 -3 35 -7 50 -10z m51 -109 c0 -8 -4 -15 -10 -15 -5 0 -10 7 -10 15 0 8
5 15 10 15 6 0 10 -7 10 -15z m517 -1432 c-3 -10 -5 -2 -5 17 0 19 2 27 5 18
2 -10 2 -26 0 -35z m-37 -320 c0 -9 12 -31 26 -50 21 -27 23 -37 14 -48 -15
-18 -6 -45 15 -45 21 0 30 27 15 45 -16 19 -2 19 43 0 20 -8 47 -15 60 -15 18
0 23 -5 22 -27 0 -28 12 -38 34 -24 10 6 10 13 2 29 -10 19 -7 20 48 27 47 5
64 3 85 -11 34 -22 30 -33 -25 -61 -37 -19 -60 -22 -146 -23 -57 0 -105 4
-108 10 -3 6 -15 10 -26 10 -10 0 -19 5 -19 10 0 6 -6 10 -13 10 -7 0 -24 10
-38 22 -13 12 -35 31 -48 42 l-24 21 17 -27 c10 -15 34 -41 54 -58 64 -55 95
-64 227 -64 111 -1 124 1 172 26 l53 27 27 -35 c52 -69 79 -291 68 -579 -8
-220 -6 -215 -60 -215 -51 0 -50 -5 -54 188 -1 72 -6 144 -10 159 -7 25 -12
28 -47 26 -21 -1 -129 -5 -239 -10 l-200 -8 2 -40 c2 -22 6 -102 9 -177 l6
-138 -139 0 -139 0 4 98 c4 83 -1 121 -29 252 -46 210 -46 282 0 374 40 82
153 201 221 234 25 12 56 31 70 42 31 24 70 26 70 3z m-516 -64 c-1 -33 -12
-53 -82 -148 -45 -62 -44 -107 8 -215 57 -118 53 -156 -11 -113 -19 13 -45 43
-59 67 -21 38 -25 58 -25 130 0 114 31 203 96 272 53 56 75 58 73 7z m861
-618 c3 -5 1 -12 -5 -16 -5 -3 -10 -15 -10 -27 0 -16 5 -19 25 -16 31 6 32 3
39 -150 l6 -112 -221 0 c-200 0 -221 2 -215 16 4 9 9 64 13 123 4 66 11 110
19 116 7 6 14 19 16 30 3 19 14 20 151 27 82 3 151 9 155 12 8 9 20 7 27 -3z"/>
<path d="M2335 3425 c-279 -74 -355 -111 -355 -170 0 -31 62 -151 98 -187 55
-58 151 -30 322 95 l80 59 0 61 c0 87 -15 136 -46 147 -30 12 -35 12 -99 -5z"/>
<path d="M1139 3282 c-27 -2 -39 -9 -48 -28 -19 -42 -13 -94 14 -130 26 -34
134 -104 161 -104 8 0 27 -6 42 -14 15 -7 42 -17 59 -21 31 -6 33 -5 54 42 11
26 36 79 55 116 47 95 42 104 -76 126 -58 11 -200 18 -261 13z"/>
<path d="M1798 2395 c-3 -3 -48 -10 -99 -15 -152 -16 -139 -5 -139 -119 l0
-99 69 -12 c91 -17 443 1 479 23 15 10 14 60 -2 152 l-12 70 -145 3 c-80 1
-148 0 -151 -3z"/>
<path d="M2772 1908 c-21 -21 -7 -68 20 -68 17 0 29 40 18 60 -12 23 -21 25
-38 8z"/>
<path d="M1402 1818 c3 -36 31 -50 42 -22 10 26 -3 54 -25 54 -17 0 -20 -6
-17 -32z"/>
<path d="M2416 1812 c-10 -30 4 -53 28 -50 31 4 30 62 -1 66 -14 2 -23 -3 -27
-16z"/>
<path d="M2051 1756 c-19 -23 -4 -58 22 -54 17 2 22 10 22 33 0 34 -24 45 -44
21z"/>
<path d="M1707 1753 c-13 -12 -7 -54 9 -60 8 -3 22 1 31 9 12 12 13 20 4 37
-12 21 -31 27 -44 14z"/>
<path d="M1796 2781 c-10 -16 5 -42 23 -39 21 4 21 42 -1 46 -9 2 -19 -1 -22
-7z"/>
<path d="M2022 2768 c-15 -15 -15 -45 -2 -53 17 -10 38 14 33 36 -7 25 -17 31
-31 17z"/>
<path d="M1416 2755 c-8 -21 1 -35 20 -35 10 0 14 8 12 22 -4 27 -23 34 -32
13z"/>
<path d="M2340 2746 c0 -29 10 -38 29 -27 18 11 10 45 -12 49 -12 3 -17 -3
-17 -22z"/>
<path d="M2194 2745 c-4 -9 -2 -21 4 -27 15 -15 44 -1 40 19 -4 23 -36 29 -44
8z"/>
<path d="M1246 2714 c-7 -19 1 -34 19 -34 15 0 24 19 18 38 -6 17 -30 15 -37
-4z"/>
<path d="M947 2664 c-10 -10 -9 -52 2 -58 13 -8 33 20 29 40 -3 19 -20 28 -31
18z"/>
<path d="M1100 2645 c0 -20 4 -26 18 -23 9 2 17 12 17 23 0 11 -8 21 -17 23
-14 3 -18 -3 -18 -23z"/>
<path d="M2015 1000 c-8 -24 1 -40 21 -40 20 0 29 27 14 45 -17 20 -27 19 -35
-5z"/>
</g>
</svg>
